Coordinates
version=1
nRows=21
nColumns=22
inDegrees=yes

Units are S.I. units (second, meters, Newtons, ...)
If the header above contains a line with 'inDegrees', this indicates whether rotational values are in degrees (yes) or radians (no).

endheader
time	pelvis_tilt	pelvis_list	pelvis_rotation	pelvis_tx	pelvis_ty	pelvis_tz	hip_flexion_r	hip_adduction_r	hip_rotation_r	knee_angle_r	ankle_angle_r	subtalar_angle_r	hip_flexion_l	hip_adduction_l	hip_rotation_l	knee_angle_l	ankle_angle_l	subtalar_angle_l	lumbar_extension	lumbar_bending	lumbar_rotation
      1.69000000	     -2.43457343	     -1.63257029	    161.77710717	     -0.14526074	      0.91054468	      0.85679243	     14.32252977	      6.49728615	    -17.81662291	    -26.12902852	      9.40039454	    -11.89583171	      6.38226013	     -4.17497010	     -1.68973403	    -64.77010681	    -12.20676563	     14.86351336	     -9.16651878	     -2.46212127	     -3.93433713
      1.70000000	     -2.52171640	     -1.58228881	    160.73651328	     -0.15122572	      0.91110308	      0.85140574	     13.55055963	      6.91141244	    -16.91409243	    -25.87879081	      9.62444942	    -11.83947399	      7.90564709	     -4.51401039	     -1.50939615	    -65.75461767	    -10.86195166	     14.48082771	     -9.21967563	     -2.58541927	     -3.40884086
      1.71000000	     -2.60882076	     -1.52535294	    159.65444226	     -0.15698846	      0.91165780	      0.84593806	     12.76195618	      7.32808942	    -15.94624358	    -25.60249135	      9.82123633	    -11.78321274	      9.37852799	     -4.86833345	     -1.32822983	    -66.48279764	     -9.50545270	     14.03183004	     -9.28525447	     -2.71325765	     -2.89815346
      1.72000000	     -2.70340705	     -1.46316461	    158.52818923	     -0.16265827	      0.91225446	      0.84035713	     11.91233992	      7.74047943	    -14.93745391	    -25.24328317	      9.97530043	    -11.72762902	     10.75922243	     -5.22872808	     -1.14659867	    -66.92148007	     -8.13323558	     13.63696239	     -9.34671963	     -2.85170159	     -2.34350184
      1.73000000	     -2.79963136	     -1.39601460	    157.37639093	     -0.16818140	      0.91284515	      0.83474795	     11.03974390	      8.13990597	    -13.87800015	    -24.85769468	     10.10790574	    -11.67379109	     12.07130524	     -5.59470648	     -0.96082066	    -67.10224682	     -6.75321215	     13.12791913	     -9.41723117	     -2.98705203	     -1.81550307
      1.74000000	     -2.91246424	     -1.33043043	    156.22238331	     -0.17359974	      0.91345034	      0.82915408	     10.13550740	      8.50040164	    -12.80934066	    -24.45574380	     10.23857131	    -11.62297256	     13.29660507	     -5.94017217	     -0.75358412	    -67.02196648	     -5.35863376	     12.31508325	     -9.51057170	     -3.12705192	     -1.33110363
      1.75000000	     -3.02097351	     -1.26912604	    155.04299976	     -0.17893997	      0.91404437	      0.82351925	      9.20691002	      8.83602554	    -11.70121587	    -24.01111198	     10.34312867	    -11.57583811	     14.43718143	     -6.27434540	     -0.55011688	    -66.67232799	     -4.01141837	     11.46673757	     -9.59177562	     -3.27041984	     -0.83982057
      1.76000000	     -3.12365981	     -1.22010696	    153.85416228	     -0.18420760	      0.91460128	      0.81789227	      8.27614243	      9.13147253	    -10.56668049	    -23.55476389	     10.44555559	    -11.53142047	     15.50438080	     -6.58093855	     -0.34555295	    -66.07055877	     -2.74294407	     10.39977776	     -9.66005882	     -3.41780764	     -0.36648932
      1.77000000	     -3.21349272	     -1.18426879	    152.64397878	     -0.18937640	      0.91509738	      0.81227756	      7.36056988	      9.39319123	     -9.36429467	    -23.10185931	     10.54041471	    -11.48828048	     16.50316217	     -6.85848141	     -0.15080447	    -65.22886802	     -1.60519667	      9.16860768	     -9.71393997	     -3.56543544	      0.10631430
      1.78000000	     -3.29514868	     -1.17369646	    151.43891831	     -0.19454087	      0.91552751	      0.80670369	      6.46313555	      9.59119810	     -8.19560330	    -22.66019619	     10.67046600	    -11.44355071	     17.42513640	     -7.08327457	      0.03610570	    -64.14513352	     -0.55717612	      7.69202999	     -9.73934197	     -3.72320979	      0.55337984
      1.79000000	     -3.35426079	     -1.17973292	    150.20308162	     -0.19965842	      0.91587033	      0.80114664	      5.59681518	      9.75267940	     -6.97835067	    -22.23328028	     10.80093841	    -11.39706899	     18.27659479	     -7.27759968	      0.18160490	    -62.83420233	      0.33481419	      6.22685118	     -9.73170826	     -3.87194115	      1.01456647
      1.80000000	     -3.39268885	     -1.19780593	    148.93835979	     -0.20473053	      0.91612270	      0.79561433	      4.76594067	      9.87955445	     -5.72344560	    -21.83496253	     10.93658343	    -11.35031409	     19.05067193	     -7.44015418	      0.28886008	    -61.30263319	      1.12423947	      4.92306087	     -9.69457051	     -4.01006102	      1.49270583
      1.81000000	     -3.40375265	     -1.22308364	    147.63828830	     -0.20976729	      0.91627337	      0.79009656	      3.97125009	      9.97961491	     -4.44016117	    -21.46023553	     11.07354672	    -11.30624893	     19.75042108	     -7.59036161	      0.32999370	    -59.55873306	      1.84804290	      3.93543573	     -9.62429852	     -4.12386819	      1.99566540
      1.82000000	     -3.38059834	     -1.24810165	    146.29716397	     -0.21473918	      0.91631179	      0.78456781	      3.21854127	     10.06985698	     -3.10779260	    -21.11372484	     11.19850302	    -11.26819185	     20.38139591	     -7.74525985	      0.29931428	    -57.61244648	      2.48295052	      3.34210778	     -9.51994116	     -4.20752755	      2.53422834
      1.83000000	     -3.28138677	     -1.27815651	    144.92727850	     -0.21966288	      0.91614093	      0.77905741	      2.56416390	     10.16533926	     -1.78675238	    -20.82566072	     11.34006770	    -11.23024669	     20.99290295	     -7.92482113	      0.20862693	    -55.48754195	      3.12380619	      3.10408153	     -9.33873808	     -4.23068804	      3.10968719
      1.84000000	     -3.18440075	     -1.29502043	    143.52582470	     -0.22456545	      0.91591386	      0.77353250	      1.89948101	     10.24327852	     -0.42586699	    -20.55014454	     11.46126197	    -11.20034700	     21.49200044	     -8.09968777	      0.03507818	    -53.16879608	      3.61610973	      2.90156509	     -9.16918240	     -4.22310761	      3.68891706
      1.85000000	     -3.07105162	     -1.30031461	    142.10808013	     -0.22947384	      0.91558133	      0.76800612	      1.25172669	     10.30996826	      0.93128488	    -20.30690616	     11.59248342	    -11.17056999	     21.90166534	     -8.26852167	     -0.19080739	    -50.67113709	      3.99327467	      2.75142995	     -8.99256546	     -4.17388370	      4.28021945
      1.86000000	     -2.93232748	     -1.30607625	    140.68978923	     -0.23441794	      0.91510982	      0.76249219	      0.63856455	     10.36301225	      2.27633422	    -20.10175599	     11.74185751	    -11.13443297	     22.24287555	     -8.41743437	     -0.44255938	    -48.00685413	      4.27421661	      2.65740089	     -8.79453016	     -4.08308486	      4.85418966
      1.87000000	     -2.83508453	     -1.28111369	    139.28941799	     -0.23945289	      0.91462060	      0.75698678	     -0.03572874	     10.38126111	      3.59418108	    -19.90194924	     11.91591239	    -11.09397301	     22.42896588	     -8.51784566	     -0.70677471	    -45.15849923	      4.44379612	      2.59855065	     -8.65861398	     -3.97241015	      5.38608450
      1.88000000	     -2.60684444	     -1.32510589	    137.90282281	     -0.24451542	      0.91375907	      0.75153284	     -0.50912155	     10.41017627	      4.86714649	    -19.79481476	     12.12230065	    -11.04502296	     22.71561844	     -8.61606135	     -0.96240451	    -42.20085757	      4.58746226	      2.63916392	     -8.35998661	     -3.80228891	      5.92223348
      1.89000000	     -2.40801278	     -1.35805308	    136.54813366	     -0.24967195	      0.91284426	      0.74608378	     -1.01703491	     10.40547673	      6.10491881	    -19.69657033	     12.35612385	    -10.99826048	     22.88396703	     -8.66302245	     -1.21435843	    -39.08293964	      4.65765351	      2.77677828	     -8.10587273	     -3.62257990	      6.40785274
